<?xml version="1.0" encoding="utf-8"?>
<!-- Generator: Adobe Illustrator 16.0.4, SVG Export Plug-In . SVG Version: 6.00 Build 0)  -->
<!DOCTYPE svg PUBLIC "-//W3C//DTD SVG 1.1//EN" "http://www.w3.org/Graphics/SVG/1.1/DTD/svg11.dtd">
<svg version="1.1" id="Your_Icon" xmlns="http://www.w3.org/2000/svg" xmlns:xlink="http://www.w3.org/1999/xlink" x="0px" y="0px"
	 width="100px" height="100px" viewBox="0 0 100 100" enable-background="new 0 0 100 100" xml:space="preserve">
<path fill="#CCCCCC" d="M67.126,47.638c-6.04-8.257-18.243,9.992-21.942,13.903c-9.454,9.994-18.908,19.988-28.363,29.982
	c-2.416,2.555-4.832,5.106-7.248,7.662c-2.886,3.051-12.014-6.071-8.952-8.971c16.217-15.341,32.434-30.681,48.651-46.021
	C63.312,30.912,76.691,16.88,90.357,3.214c4.021-4.021,9.949-4.604,9.154,3.398c-0.732,7.367-4.507,13.141-9.594,18.228
	C82.322,32.441,74.725,40.039,67.126,47.638"/>
<path fill="#CCCCCC" d="M32.03,37.37c-6.46-4.547-14.028-0.635-19.319-8.079c-3.547-4.988-7.092-9.976-10.639-14.963
	c-2.409-3.39-0.693-4.768,2.234-1.84c4.393,4.392,8.784,8.784,13.176,13.176c1.219,1.218,3.766,0.246,2.237-1.284
	c-0.138-0.943-3.003-3.002-3.642-3.641C13.815,18.476,4.76,12.094,4.305,8.966c-1.53-1.529,1.017-2.503,2.236-1.284
	c1.807,1.807,3.614,3.614,5.421,5.42c1.151,1.151,9.489,11.306,11.278,9.517c1.76-1.76-7.27-9.03-8.314-10.076
	c-2.208-2.208-4.416-4.415-6.623-6.623C7.084,4.702,8.057,2.155,9.586,3.685c2.832,0.412,8.649,8.65,10.68,10.679
	c0.85,0.851,3.495,4.555,4.734,4.735c1.53,1.528,2.503-1.018,1.284-2.237c-4.1-4.099-8.198-8.198-12.298-12.297
	c-2.9-2.901-3.428-6.233,0.963-3.112c4.776,3.396,9.555,6.793,14.332,10.189c7.832,5.568,3.951,13.009,8.709,19.768
	c2.795,3.971,7.207,7.158,10.712,10.474c-2.122,2.006-4.245,4.013-6.367,6.019C39.073,44.455,35.938,40.12,32.03,37.37z"/>
<path fill="#CCCCCC" d="M60.48,53.025c4.713,4.459,9.426,8.916,14.139,13.373c5.688,5.381,11.375,10.762,17.062,16.142
	c1.812,1.718,7.526,5.372,8.284,7.84c0.562,6.582-6.558,11.519-11.147,6.664c-4.438-4.69-8.875-9.383-13.312-14.073
	c-7.957-8.412-15.914-16.824-23.871-25.236C55.059,54.118,56.486,49.247,60.48,53.025z"/>
</svg>
